<?xml version="1.0" encoding="utf-8" ?><svg xmlns="http://www.w3.org/2000/svg" xmlns:xlink="http://www.w3.org/1999/xlink" width="20" height="20"><path fill="#3D8A5A" transform="matrix(1 0 0 1 8.33333 1.72201)" d="M3.0924 10.0235Q1.5355 9.912 0.6006 8.6621Q0.4195 8.4049 0.107 8.369Q-0.2029 8.3152 -0.4492 8.5107Q-0.7064 8.6918 -0.7423 9.0043Q-0.7961 9.3142 -0.6006 9.5605Q0.7448 11.3592 2.9853 11.5197Q5.2258 11.6801 6.8138 10.0916L9.3137 7.5916Q10.7203 6.1355 10.7028 4.124Q10.6853 2.1125 9.2629 0.6901Q7.8405 -0.7323 5.829 -0.7498Q3.8175 -0.7673 2.3706 0.6302L0.9296 2.0628Q0.7002 2.278 0.7083 2.5925Q0.6984 2.9069 0.9265 3.1234Q1.1417 3.3528 1.4561 3.3447Q1.7705 3.3546 1.9871 3.1265L3.4127 1.7091Q4.4182 0.738 5.816 0.7502Q7.2138 0.7623 8.2022 1.7507Q9.1907 2.7392 9.2029 4.137Q9.215 5.5348 8.253 6.531L5.7529 9.0311Q4.6494 10.135 3.0924 10.0235Z" fill-rule="evenodd"/><path fill="#3D8A5A" transform="matrix(1 0 0 1 1.71365 7.49391)" d="M6.8606 0.7606Q8.4175 0.8721 9.3524 2.122Q9.5335 2.3792 9.846 2.4151Q10.1559 2.4689 10.4023 2.2733Q10.6594 2.0922 10.6953 1.7798Q10.7492 1.4699 10.5536 1.2235Q9.2082 -0.5752 6.9677 -0.7356Q4.7273 -0.8961 3.1393 0.6925L0.6393 3.1924Q-0.7673 4.6486 -0.7498 6.6601Q-0.7323 8.6716 0.6901 10.094Q2.1125 11.5164 4.124 11.5339Q6.1355 11.5514 7.5824 10.1539L9.0167 8.7198Q9.2454 8.5038 9.2364 8.1894Q9.2454 7.875 9.0167 7.6591Q8.8008 7.4304 8.4864 7.4394Q8.1719 7.4304 7.956 7.6591L6.5403 9.075Q5.5348 10.0461 4.137 10.0339Q2.7392 10.0218 1.7507 9.0334Q0.7623 8.0449 0.7502 6.6471Q0.738 5.2493 1.7 4.2531L4.2001 1.753Q5.3036 0.6491 6.8606 0.7606Z" fill-rule="evenodd"/></svg>