<?xml version="1.0" encoding="utf-8" ?><svg xmlns="http://www.w3.org/2000/svg" xmlns:xlink="http://www.w3.org/1999/xlink" width="20" height="20"><path fill="#9C9B99" transform="matrix(1 0 0 1 3.33333 1.66667)" d="M8.3333 -0.75L1.6667 -0.75Q0.6657 -0.75 -0.0422 -0.0422Q-0.75 0.6657 -0.75 1.6667L-0.75 15Q-0.75 16.001 -0.0422 16.7088Q0.6656 17.4167 1.6667 17.4167L11.6667 17.4167Q12.6677 17.4167 13.3755 16.7088Q14.0833 16.001 14.0833 15L14.0833 5Q14.0839 4.8507 14.0262 4.713Q13.9696 4.5748 13.8637 4.4697L8.8637 -0.5303Q8.7585 -0.6363 8.6203 -0.6929Q8.4826 -0.7506 8.3333 -0.75ZM1.0185 1.0185Q1.287 0.75 1.6667 0.75L8.0227 0.75L12.5833 5.3107L12.5833 15Q12.5833 15.3797 12.3148 15.6482Q12.0464 15.9167 11.6667 15.9167L1.6667 15.9167Q1.287 15.9167 1.0185 15.6482Q0.75 15.3797 0.75 15L0.75 1.6667Q0.75 1.287 1.0185 1.0185Z" fill-rule="evenodd"/><path fill="#9C9B99" transform="matrix(1 0 0 1 11.6667 1.66667)" d="M0.75 4.25L0.75 0Q0.759 -0.3144 0.5303 -0.5303Q0.3144 -0.759 0 -0.75Q-0.3144 -0.759 -0.5303 -0.5303Q-0.759 -0.3144 -0.75 0L-0.75 5Q-0.759 5.3144 -0.5303 5.5303Q-0.3144 5.759 0 5.75L5 5.75Q5.3144 5.759 5.5303 5.5303Q5.759 5.3144 5.75 5Q5.759 4.6856 5.5303 4.4697Q5.3144 4.241 5 4.25L0.75 4.25Z" fill-rule="evenodd"/><path fill="#9C9B99" transform="matrix(1 0 0 1 6.66667 10.8333)" d="M0 0.75L6.6667 0.75Q6.9811 0.759 7.197 0.5303Q7.4257 0.3144 7.4167 0Q7.4257 -0.3144 7.197 -0.5303Q6.9811 -0.759 6.6667 -0.75L0 -0.75Q-0.3144 -0.759 -0.5303 -0.5303Q-0.759 -0.3144 -0.75 0Q-0.759 0.3144 -0.5303 0.5303Q-0.3144 0.759 0 0.75Z" fill-rule="evenodd"/><path fill="#9C9B99" transform="matrix(1 0 0 1 6.66667 14.1667)" d="M0 0.75L6.6667 0.75Q6.9811 0.759 7.197 0.5303Q7.4257 0.3144 7.4167 0Q7.4257 -0.3144 7.197 -0.5303Q6.9811 -0.759 6.6667 -0.75L0 -0.75Q-0.3144 -0.759 -0.5303 -0.5303Q-0.759 -0.3144 -0.75 0Q-0.759 0.3144 -0.5303 0.5303Q-0.3144 0.759 0 0.75Z" fill-rule="evenodd"/></svg>