<?xml version="1.0" encoding="utf-8" ?><svg xmlns="http://www.w3.org/2000/svg" xmlns:xlink="http://www.w3.org/1999/xlink" width="20" height="20"><path fill="#9C9B99" transform="matrix(1 0 0 1 7.5 7.5)" d="M5 2.5Q5 1.4645 4.2678 0.7322Q3.5355 0 2.5 0Q1.4645 0 0.7322 0.7322Q0 1.4645 0 2.5Q0 3.5355 0.7322 4.2678Q1.4645 5 2.5 5Q3.5355 5 4.2678 4.2678Q5 3.5355 5 2.5ZM1.5 2.5Q1.5 1.5 2.5 1.5Q3.5 1.5 3.5 2.5Q3.5 3.5 2.5 3.5Q1.5 3.5 1.5 2.5Z" fill-rule="evenodd"/><path fill="#9C9B99" transform="matrix(1 0 0 1 0.833333 0.833333)" d="M9.9167 1.6667L9.9167 0Q9.9257 -0.3144 9.697 -0.5303Q9.4811 -0.759 9.1667 -0.75Q8.8523 -0.759 8.6363 -0.5303Q8.4076 -0.3144 8.4167 0L8.4167 1.6667Q8.4076 1.9811 8.6363 2.197Q8.8523 2.4257 9.1667 2.4167Q9.4811 2.4257 9.697 2.197Q9.9257 1.9811 9.9167 1.6667ZM4.397 3.3363L3.2137 2.153Q2.9977 1.9243 2.6833 1.9333Q2.3689 1.9243 2.153 2.153Q1.9243 2.3689 1.9333 2.6833Q1.9243 2.9977 2.153 3.2137L3.3363 4.397Q3.5523 4.6257 3.8667 4.6167Q4.1811 4.6257 4.397 4.397Q4.6257 4.1811 4.6167 3.8667Q4.6257 3.5523 4.397 3.3363ZM15.1197 2.153L13.9363 3.3363Q13.7076 3.5523 13.7167 3.8667Q13.7076 4.1811 13.9363 4.397Q14.1523 4.6257 14.4667 4.6167Q14.7811 4.6257 14.997 4.397L16.1803 3.2137Q16.4091 2.9977 16.4 2.6833Q16.4091 2.3689 16.1803 2.153Q15.9644 1.9243 15.65 1.9333Q15.3356 1.9243 15.1197 2.153ZM1.6667 8.4167L0 8.4167Q-0.3144 8.4076 -0.5303 8.6363Q-0.759 8.8523 -0.75 9.1667Q-0.759 9.4811 -0.5303 9.697Q-0.3144 9.9257 0 9.9167L1.6667 9.9167Q1.9811 9.9257 2.197 9.697Q2.4257 9.4811 2.4167 9.1667Q2.4257 8.8523 2.197 8.6363Q1.9811 8.4076 1.6667 8.4167ZM18.3333 8.4167L16.6667 8.4167Q16.3523 8.4076 16.1364 8.6363Q15.9076 8.8523 15.9167 9.1667Q15.9076 9.4811 16.1364 9.697Q16.3523 9.9257 16.6667 9.9167L18.3333 9.9167Q18.6477 9.9257 18.8637 9.697Q19.0924 9.4811 19.0833 9.1667Q19.0924 8.8523 18.8637 8.6363Q18.6477 8.4076 18.3333 8.4167ZM3.3363 13.9363L2.153 15.1197Q1.9243 15.3356 1.9333 15.65Q1.9243 15.9644 2.153 16.1803Q2.3689 16.4091 2.6833 16.4Q2.9977 16.4091 3.2137 16.1803L4.397 14.997Q4.6257 14.7811 4.6167 14.4667Q4.6257 14.1523 4.397 13.9363Q4.1811 13.7076 3.8667 13.7167Q3.5523 13.7076 3.3363 13.9363ZM16.1803 15.1197L14.997 13.9363Q14.7811 13.7076 14.4667 13.7167Q14.1523 13.7076 13.9363 13.9363Q13.7076 14.1523 13.7167 14.4667Q13.7076 14.7811 13.9363 14.997L15.1197 16.1803Q15.3356 16.4091 15.65 16.4Q15.9644 16.4091 16.1803 16.1803Q16.4091 15.9644 16.4 15.65Q16.4091 15.3356 16.1803 15.1197ZM9.9167 18.3333L9.9167 16.6667Q9.9257 16.3523 9.697 16.1364Q9.4811 15.9076 9.1667 15.9167Q8.8523 15.9076 8.6363 16.1364Q8.4076 16.3523 8.4167 16.6667L8.4167 18.3333Q8.4076 18.6477 8.6363 18.8637Q8.8523 19.0924 9.1667 19.0833Q9.4811 19.0924 9.697 18.8637Q9.9257 18.6477 9.9167 18.3333Z" fill-rule="evenodd"/></svg>